<svg width="142" height="24" viewBox="0 0 142 24" fill="none" xmlns="http://www.w3.org/2000/svg">
<path d="M5.75418 21.4689L5.45133 21.1334L7.90443 21.7738V23.6645H0V21.7738L2.42281 21.1334L2.11996 21.4689V2.43964L2.39253 2.7446L0 2.13469V0.243965L5.75418 0V21.4689Z" fill="black"/>
<path d="M16.7735 24C15.3602 24 14.1084 23.695 13.0181 23.0851C11.9279 22.4549 11.0799 21.5299 10.4742 20.31C9.86847 19.0902 9.56562 17.5959 9.56562 15.8272C9.56562 14.0178 9.87856 12.4625 10.5045 11.1614C11.1505 9.86023 12.049 8.86404 13.1998 8.17281C14.3709 7.46124 15.7539 7.10546 17.3489 7.10546C18.8632 7.10546 20.0948 7.42058 21.0437 8.05083C22.0128 8.66074 22.7296 9.50445 23.1939 10.582C23.6583 11.6595 23.8905 12.8793 23.8905 14.2414C23.8905 14.5464 23.8804 14.8513 23.8602 15.1563C23.84 15.4612 23.7996 15.7967 23.7391 16.1626H12.473V13.845H20.5591L20.1351 14.1194C20.1553 13.3062 20.0645 12.5743 19.8626 11.9238C19.6809 11.2732 19.3578 10.7548 18.8935 10.3685C18.4291 9.98221 17.8133 9.78907 17.0461 9.78907C16.1779 9.78907 15.4611 10.033 14.8958 10.521C14.3507 11.0089 13.9469 11.6696 13.6844 12.5032C13.4421 13.3367 13.321 14.2821 13.321 15.3393C13.321 16.4981 13.4724 17.5248 13.7753 18.4193C14.0781 19.2935 14.5526 19.9848 15.1987 20.493C15.8447 21.0013 16.6624 21.2554 17.6518 21.2554C18.3584 21.2554 19.1256 21.1233 19.9534 20.859C20.7812 20.5947 21.6393 20.1881 22.5277 19.6391L23.7694 21.6213C22.6185 22.4142 21.4475 23.014 20.2563 23.4206C19.0651 23.8069 17.9041 24 16.7735 24Z" fill="black"/>
<path d="M24.4524 23.6645V21.7738L26.9964 21.2249L26.0878 21.7433L30.9032 14.9733L31.7209 14.8513L36.5968 7.5629L40.5036 7.31893V9.20966L37.9293 9.85006L38.9893 9.24015L34.3254 15.6747L33.538 15.7662L28.3592 23.6645H24.4524ZM33.2351 23.6645V21.7738L35.2945 21.4079L35.0825 21.8958L31.1152 16.1931L26.209 9.27065L26.9661 9.91105L24.8159 9.45362V7.5629L31.9632 7.31893V9.20966L29.8432 9.66709L30.1158 9.08767L33.6591 14.2719L39.0196 21.7433L38.3533 21.2249L40.8367 21.7738V23.6645H33.2351Z" fill="black"/>
<path d="M61.348 17.4162C61.5476 17.5613 61.6474 17.7289 61.6474 17.9187C61.6474 17.9746 61.6419 18.0136 61.6308 18.036C61.409 19.0411 60.9709 19.9959 60.3166 20.9005C59.6622 21.7939 58.7749 22.5254 57.6548 23.095C56.5457 23.6645 55.2314 23.9493 53.712 23.9493C52.004 23.9493 50.4735 23.5194 49.1204 22.6594C47.7674 21.7995 46.7026 20.5822 45.9263 19.0076C45.161 17.4217 44.7784 15.5846 44.7784 13.4963C44.7784 11.5977 45.161 9.9114 45.9263 8.43725C46.7026 6.9631 47.7674 5.8184 49.1204 5.00315C50.4735 4.1879 51.9985 3.78027 53.6954 3.78027C54.5604 3.78027 55.3867 3.9087 56.1742 4.16556C56.9616 4.41125 57.6492 4.75187 58.237 5.18742C58.8359 5.62296 59.2851 6.11434 59.5846 6.66157V4.88589C59.5846 4.62903 59.6622 4.42801 59.8175 4.28282C59.9838 4.12647 60.1779 4.0483 60.3997 4.0483C60.6215 4.0483 60.8101 4.12647 60.9654 4.28282C61.1317 4.42801 61.2149 4.63461 61.2149 4.90264V9.81089C61.2149 10.0677 61.1373 10.2632 60.982 10.3972C60.8378 10.5312 60.6604 10.5982 60.4496 10.5982C60.25 10.5982 60.0781 10.5312 59.9339 10.3972C59.7897 10.252 59.6955 10.0566 59.6511 9.81089C59.4847 8.9063 59.1187 8.1078 58.5531 7.41539C57.9986 6.72299 57.3054 6.18693 56.4736 5.80723C55.6418 5.41636 54.7324 5.22092 53.7453 5.22092C52.248 5.22092 50.9449 5.57829 49.8358 6.29303C48.7267 7.00777 47.8727 8.0017 47.2738 9.27483C46.6749 10.548 46.3755 11.9942 46.3755 13.6135C46.3755 15.4339 46.7082 17.0197 47.3736 18.371C48.0502 19.7111 48.9485 20.7386 50.0687 21.4533C51.1889 22.1569 52.4088 22.5087 53.7286 22.5087C55.3035 22.5087 56.6344 22.0787 57.7213 21.2188C58.8082 20.3589 59.579 19.1695 60.0337 17.6507C60.1446 17.338 60.3665 17.1816 60.6992 17.1816C60.9321 17.1816 61.1484 17.2598 61.348 17.4162Z" fill="#D5603B"/>
<path d="M67.3536 20.666C66.7658 19.6162 66.4719 18.3933 66.4719 16.9974C66.4719 15.5902 66.7658 14.3618 67.3536 13.312C67.9414 12.2622 68.7677 11.4581 69.8324 10.8997C70.8971 10.3302 72.1282 10.0454 73.5256 10.0454C74.9231 10.0454 76.1542 10.3302 77.2189 10.8997C78.2836 11.4581 79.1098 12.2622 79.6977 13.312C80.2855 14.3618 80.5794 15.5902 80.5794 16.9974C80.5794 18.3933 80.2855 19.6162 79.6977 20.666C79.1098 21.7158 78.2836 22.5254 77.2189 23.095C76.1542 23.6645 74.9231 23.9493 73.5256 23.9493C72.1282 23.9493 70.8971 23.6645 69.8324 23.095C68.7677 22.5254 67.9414 21.7158 67.3536 20.666ZM68.8842 14.1161C68.4738 14.9537 68.2686 15.9141 68.2686 16.9974C68.2686 18.0918 68.4738 19.0634 68.8842 19.9122C69.3056 20.7498 69.9101 21.4031 70.6975 21.8721C71.496 22.3412 72.4388 22.5757 73.5256 22.5757C74.6125 22.5757 75.5497 22.3412 76.3372 21.8721C77.1357 21.4031 77.7401 20.7498 78.1505 19.9122C78.5719 19.0634 78.7827 18.0918 78.7827 16.9974C78.7827 15.9141 78.5719 14.9537 78.1505 14.1161C77.7401 13.2673 77.1357 12.6084 76.3372 12.1394C75.5497 11.6592 74.6125 11.4191 73.5256 11.4191C72.4388 11.4191 71.496 11.6592 70.6975 12.1394C69.9101 12.6084 69.3056 13.2673 68.8842 14.1161Z" fill="#D5603B"/>
<path d="M99.1619 23.7148H99.0455C98.8237 23.7148 98.6407 23.6478 98.4965 23.5138C98.3523 23.3686 98.2747 23.1564 98.2636 22.8772L98.2137 21.8721C97.7035 22.4863 97.0159 22.9889 96.1508 23.3798C95.2968 23.7595 94.3596 23.9493 93.3393 23.9493C92.0639 23.9493 90.9492 23.6534 89.9954 23.0615C89.0527 22.4696 88.3263 21.6488 87.8161 20.599C87.3059 19.5492 87.0508 18.3487 87.0508 16.9974C87.0508 15.6684 87.3059 14.479 87.8161 13.4293C88.3263 12.3683 89.0527 11.5419 89.9954 10.95C90.9492 10.3469 92.0639 10.0454 93.3393 10.0454C94.3485 10.0454 95.2192 10.1962 95.9512 10.4977C96.6942 10.7992 97.3985 11.2404 98.064 11.8211V5.38844L95.9345 5.52245C95.8902 5.53362 95.8403 5.54479 95.7848 5.55595C95.7293 5.56712 95.6684 5.57271 95.6018 5.57271C95.4133 5.57271 95.258 5.51128 95.136 5.38844C95.014 5.26559 94.953 5.11483 94.953 4.93614C94.953 4.77979 94.9974 4.63461 95.0861 4.5006C95.1748 4.36658 95.3134 4.28282 95.502 4.24932L98.6462 3.93104C98.8237 3.9087 98.9346 3.89753 98.9789 3.89753C99.4337 3.89753 99.661 4.11531 99.661 4.55085V22.2407L102.123 22.0564H102.223C102.445 22.0564 102.611 22.1122 102.722 22.2239C102.833 22.3356 102.888 22.4752 102.888 22.6427C102.888 22.8102 102.833 22.9666 102.722 23.1117C102.611 23.2458 102.456 23.3351 102.256 23.3798L99.1619 23.7148ZM98.064 13.58C96.9216 12.1394 95.38 11.4191 93.4391 11.4191C92.4188 11.4191 91.5481 11.6703 90.8272 12.1729C90.1063 12.6754 89.5629 13.3511 89.1969 14.1998C88.8309 15.0486 88.6479 15.9811 88.6479 16.9974C88.6479 18.0136 88.8309 18.9462 89.1969 19.7949C89.5629 20.6437 90.1008 21.3193 90.8106 21.8219C91.5204 22.3244 92.3744 22.5757 93.3726 22.5757C95.38 22.5757 96.9438 21.766 98.064 20.1467V13.58Z" fill="#D5603B"/>
<path d="M108.944 20.6492C108.312 19.5771 107.996 18.3096 107.996 16.8466C107.996 15.4618 108.323 14.2557 108.977 13.2282C109.643 12.2008 110.53 11.4135 111.639 10.8662C112.759 10.319 113.996 10.0454 115.349 10.0454C116.502 10.0454 117.528 10.2632 118.427 10.6987C119.336 11.1231 120.046 11.7541 120.556 12.5917C121.077 13.4293 121.338 14.4455 121.338 15.6405C121.338 16.0649 121.221 16.4166 120.989 16.6958C120.756 16.9639 120.445 17.0979 120.057 17.0979L109.593 17.1816C109.648 18.9462 110.203 20.2863 111.256 21.202C112.31 22.1178 113.691 22.5757 115.399 22.5757C116.231 22.5757 117.046 22.4249 117.844 22.1234C118.654 21.8107 119.375 21.3528 120.007 20.7498C120.24 20.5599 120.467 20.465 120.689 20.465C120.889 20.465 121.05 20.5376 121.172 20.6827C121.294 20.8279 121.355 21.001 121.355 21.202C121.355 21.4477 121.255 21.6823 121.055 21.9056C120.478 22.531 119.647 23.028 118.56 23.3965C117.484 23.7651 116.475 23.9493 115.532 23.9493C114.046 23.9493 112.731 23.6645 111.589 23.095C110.458 22.5254 109.576 21.7102 108.944 20.6492ZM118.892 12.7424C118.282 11.8602 117.112 11.4191 115.382 11.4191C113.763 11.4191 112.449 11.8155 111.439 12.6084C110.441 13.4013 109.842 14.5125 109.643 15.942L119.924 15.875C119.846 14.6689 119.502 13.6247 118.892 12.7424Z" fill="#D5603B"/>
<path d="M140.636 14.0826C140.481 13.9262 140.403 13.7085 140.403 13.4293V11.4191C138.917 11.4191 137.603 11.715 136.46 12.3069C135.318 12.8876 134.525 13.7364 134.081 14.8532V22.2909H139.671C139.882 22.2909 140.042 22.3579 140.153 22.4919C140.275 22.6259 140.336 22.7879 140.336 22.9777C140.336 23.1564 140.275 23.3183 140.153 23.4635C140.031 23.5975 139.865 23.6645 139.654 23.6645H129.506C129.262 23.6645 129.074 23.5975 128.941 23.4635C128.808 23.3183 128.741 23.1508 128.741 22.961C128.741 22.7823 128.802 22.6259 128.924 22.4919C129.046 22.3579 129.218 22.2909 129.44 22.2909H132.484V11.7876L130.455 12.2064C130.41 12.2175 130.344 12.2231 130.255 12.2231C130.044 12.2231 129.878 12.1561 129.756 12.0221C129.645 11.8881 129.589 11.7317 129.589 11.5531C129.589 11.3967 129.634 11.2627 129.723 11.151C129.811 11.0282 129.933 10.95 130.089 10.9165L132.933 10.3469C133.077 10.3134 133.205 10.2967 133.316 10.2967C133.56 10.2967 133.721 10.3749 133.798 10.5312C133.887 10.6876 133.937 10.9221 133.948 11.2348L134.015 12.977C135.279 11.0226 137.453 10.0454 140.536 10.0454C141.068 10.0454 141.445 10.1292 141.667 10.2967C141.889 10.4642 142 10.7155 142 11.0505V13.3622C142 13.6638 141.917 13.8983 141.75 14.0658C141.595 14.2222 141.407 14.3003 141.185 14.3003C140.974 14.3003 140.791 14.2278 140.636 14.0826Z" fill="#D5603B"/>
</svg>
